<svg width="23" height="15" viewBox="0 0 23 15" fill="none" xmlns="http://www.w3.org/2000/svg">
    <path
        d="M20.4491 0H1.65547C0.741152 0 0 0.741152 0 1.65547V12.8269C0 13.7412 0.741152 14.4824 1.65547 14.4824H20.4491C21.3634 14.4824 22.1046 13.7412 22.1046 12.8269V1.65547C22.1046 0.741152 21.3634 0 20.4491 0Z"
        fill="#F5F5F5" />
    <path
        d="M0.0924072 1.11404H22.0149C21.7905 0.465708 21.1751 0 20.4505 0H1.65683C0.932209 0 0.316777 0.465708 0.0924072 1.11404Z"
        fill="#FF4B55" />
    <path d="M22.1059 4.45605H0.00134277V5.57005H22.1059V4.45605Z" fill="#FF4B55" />
    <path d="M22.1059 2.22778H0.00134277V3.34178H22.1059V2.22778Z" fill="#FF4B55" />
    <path
        d="M0.00134277 7.41674C0.00134277 7.62721 0.172006 7.79787 0.382474 7.79787H22.1059V6.68384H0.00134277V7.41674Z"
        fill="#FF4B55" />
    <path d="M22.1059 11.1406H0.00134277V12.2547H22.1059V11.1406Z" fill="#FF4B55" />
    <path
        d="M22.0149 13.3679H0.0924072C0.316777 14.0162 0.932252 14.482 1.65683 14.482H20.4505C21.1751 14.482 21.7905 14.0162 22.0149 13.3679Z"
        fill="#FF4B55" />
    <path d="M22.1059 8.9126H0.00134277V10.0266H22.1059V8.9126Z" fill="#FF4B55" />
    <path
        d="M0.381132 7.79822H9.90899C10.1195 7.79822 10.2901 7.62755 10.2901 7.41709V0.381131C10.2901 0.17062 10.1195 0 9.90899 0H1.65547C0.741152 4.3173e-05 0 0.741195 0 1.65551V7.41709C0 7.6276 0.170663 7.79822 0.381132 7.79822Z"
        fill="#41479B" />
    <path
        d="M1.07018 0.875401L1.15454 1.1284L1.42122 1.13042C1.45576 1.13073 1.47005 1.17476 1.44229 1.19527L1.22776 1.35367L1.30824 1.60792C1.31869 1.64082 1.28117 1.6681 1.25306 1.64798L1.03612 1.49295L0.819174 1.64803C0.791068 1.66814 0.753637 1.64086 0.763999 1.60796L0.844473 1.35371L0.629947 1.19531C0.602186 1.17476 0.616477 1.13073 0.651015 1.13047L0.917695 1.12844L1.00205 0.875444C1.01293 0.842633 1.05922 0.842633 1.07018 0.875401Z"
        fill="#F5F5F5" />
    <path
        d="M1.07006 2.19837L1.15442 2.45136L1.4211 2.45339C1.45564 2.45369 1.46993 2.49769 1.44217 2.51824L1.22764 2.67668L1.30812 2.93093C1.31856 2.96382 1.28105 2.99111 1.25294 2.97099L1.036 2.81596L0.819052 2.97103C0.790946 2.99111 0.753515 2.96387 0.763877 2.93097L0.844351 2.67672L0.629824 2.51828C0.602064 2.49773 0.616354 2.45374 0.650893 2.45343L0.917573 2.4514L1.00193 2.19841C1.01281 2.16564 1.05909 2.16564 1.07006 2.19837Z"
        fill="#F5F5F5" />
    <path
        d="M1.07006 3.52189L1.15442 3.77488L1.4211 3.77691C1.45564 3.77721 1.46993 3.8212 1.44217 3.84175L1.22764 4.0002L1.30812 4.25445C1.31856 4.28734 1.28105 4.31463 1.25294 4.29451L1.036 4.13948L0.819052 4.29455C0.790946 4.31463 0.753515 4.28743 0.763877 4.25449L0.844351 4.00024L0.629824 3.8418C0.602064 3.82125 0.616354 3.77725 0.650893 3.77695L0.917573 3.77492L1.00193 3.52193C1.01281 3.48912 1.05909 3.48912 1.07006 3.52189Z"
        fill="#F5F5F5" />
    <path
        d="M1.07006 4.84537L1.15442 5.09837L1.4211 5.10039C1.45564 5.1007 1.46993 5.14473 1.44217 5.16524L1.22764 5.32368L1.30812 5.57793C1.31856 5.61083 1.28105 5.63811 1.25294 5.618L1.036 5.46296L0.819052 5.61804C0.790946 5.63811 0.753515 5.61087 0.763877 5.57797L0.844351 5.32373L0.629824 5.16528C0.602064 5.14482 0.616354 5.10074 0.650893 5.10044L0.917573 5.09841L1.00193 4.84541C1.01281 4.8126 1.05909 4.8126 1.07006 4.84537Z"
        fill="#F5F5F5" />
    <path
        d="M1.07006 6.16907L1.15442 6.42206L1.4211 6.42409C1.45564 6.4244 1.46993 6.46839 1.44217 6.48894L1.22764 6.64738L1.30812 6.90163C1.31856 6.93453 1.28105 6.96181 1.25294 6.94169L1.036 6.78666L0.819052 6.94174C0.790946 6.96181 0.753515 6.93457 0.763877 6.90167L0.844351 6.64743L0.629824 6.48898C0.602064 6.46843 0.616354 6.42444 0.650893 6.42414L0.917573 6.42211L1.00193 6.16911C1.01281 6.13634 1.05909 6.13634 1.07006 6.16907Z"
        fill="#F5F5F5" />
    <path
        d="M2.09753 1.52357L2.18189 1.77656L2.44857 1.77859C2.4831 1.77889 2.49739 1.82293 2.46963 1.84344L2.25511 2.00188L2.33558 2.25613C2.34603 2.28903 2.30851 2.31631 2.28041 2.29619L2.06346 2.14111L1.84652 2.29619C1.81841 2.31627 1.78098 2.28903 1.79134 2.25613L1.87182 2.00188L1.65729 1.84344C1.62953 1.82289 1.64382 1.77889 1.67836 1.77859L1.94504 1.77656L2.0294 1.52357C2.04028 1.49084 2.0866 1.49084 2.09753 1.52357Z"
        fill="#F5F5F5" />
    <path
        d="M2.09753 2.84733L2.18189 3.10032L2.44857 3.10235C2.4831 3.10266 2.49739 3.14669 2.46963 3.1672L2.25511 3.32564L2.33558 3.57989C2.34603 3.61279 2.30851 3.64007 2.28041 3.61996L2.06346 3.46488L1.84652 3.61996C1.81841 3.64003 1.78098 3.61283 1.79134 3.57989L1.87182 3.32564L1.65729 3.1672C1.62953 3.14674 1.64382 3.10266 1.67836 3.10235L1.94504 3.10032L2.0294 2.84733C2.04028 2.81456 2.0866 2.81456 2.09753 2.84733Z"
        fill="#F5F5F5" />
    <path
        d="M2.09753 4.17082L2.18189 4.42381L2.44857 4.42584C2.4831 4.42614 2.49739 4.47013 2.46963 4.49069L2.25511 4.64913L2.33558 4.90338C2.34603 4.93627 2.30851 4.96356 2.28041 4.94344L2.06346 4.78836L1.84652 4.94344C1.81841 4.96352 1.78098 4.93627 1.79134 4.90338L1.87182 4.64913L1.65729 4.49069C1.62953 4.47013 1.64382 4.42614 1.67836 4.42584L1.94504 4.42381L2.0294 4.17082C2.04028 4.13805 2.0866 4.13805 2.09753 4.17082Z"
        fill="#F5F5F5" />
    <path
        d="M2.09753 5.49403L2.18189 5.74702L2.44857 5.74905C2.4831 5.74935 2.49739 5.79334 2.46963 5.8139L2.25511 5.97234L2.33558 6.22659C2.34603 6.25948 2.30851 6.28677 2.28041 6.26665L2.06346 6.11157L1.84652 6.26665C1.81841 6.28677 1.78098 6.25948 1.79134 6.22659L1.87182 5.97234L1.65729 5.8139C1.62953 5.79334 1.64382 5.74935 1.67836 5.74905L1.94504 5.74702L2.0294 5.49403C2.04028 5.4613 2.0866 5.4613 2.09753 5.49403Z"
        fill="#F5F5F5" />
    <path
        d="M3.12493 0.874918L3.20929 1.12791L3.47597 1.12994C3.51051 1.13024 3.5248 1.17428 3.49704 1.19479L3.28251 1.35319L3.36299 1.60743C3.37343 1.64033 3.33592 1.66762 3.30781 1.6475L3.09087 1.49242L2.87392 1.6475C2.84582 1.66762 2.80839 1.64033 2.81875 1.60743L2.89922 1.35319L2.6847 1.19479C2.65693 1.17424 2.67123 1.1302 2.70576 1.12994L2.97244 1.12791L3.0568 0.874918C3.06768 0.84215 3.11401 0.84215 3.12493 0.874918Z"
        fill="#F5F5F5" />
    <path
        d="M3.12493 2.19837L3.20929 2.45137L3.47597 2.4534C3.51051 2.4537 3.5248 2.49769 3.49704 2.51824L3.28251 2.67669L3.36299 2.93093C3.37343 2.96383 3.33592 2.99112 3.30781 2.971L3.09087 2.81592L2.87392 2.971C2.84582 2.99107 2.80839 2.96383 2.81875 2.93093L2.89922 2.67669L2.6847 2.51824C2.65693 2.49769 2.67123 2.4537 2.70576 2.4534L2.97244 2.45137L3.0568 2.19837C3.06768 2.16565 3.11401 2.16565 3.12493 2.19837Z"
        fill="#F5F5F5" />
    <path
        d="M3.12493 3.52189L3.20929 3.77489L3.47597 3.77691C3.51051 3.77722 3.5248 3.82121 3.49704 3.84176L3.28251 4.00021L3.36299 4.25445C3.37343 4.28735 3.33592 4.31464 3.30781 4.29452L3.09087 4.13944L2.87392 4.29452C2.84582 4.31459 2.80839 4.28739 2.81875 4.25445L2.89922 4.00021L2.6847 3.84176C2.65693 3.82121 2.67123 3.77722 2.70576 3.77691L2.97244 3.77489L3.0568 3.52189C3.06768 3.48912 3.11401 3.48912 3.12493 3.52189Z"
        fill="#F5F5F5" />
    <path
        d="M3.12493 4.84538L3.20929 5.09837L3.47597 5.1004C3.51051 5.1007 3.5248 5.14474 3.49704 5.16525L3.28251 5.32369L3.36299 5.57794C3.37343 5.61083 3.33592 5.63812 3.30781 5.618L3.09087 5.46292L2.87392 5.618C2.84582 5.63808 2.80839 5.61083 2.81875 5.57794L2.89922 5.32369L2.6847 5.16525C2.65693 5.14478 2.67123 5.1007 2.70576 5.1004L2.97244 5.09837L3.0568 4.84538C3.06768 4.81261 3.11401 4.81261 3.12493 4.84538Z"
        fill="#F5F5F5" />
    <path
        d="M3.12493 6.16908L3.20929 6.42207L3.47597 6.4241C3.51051 6.4244 3.5248 6.46839 3.49704 6.48894L3.28251 6.64739L3.36299 6.90163C3.37343 6.93453 3.33592 6.96182 3.30781 6.9417L3.09087 6.78662L2.87392 6.9417C2.84582 6.96178 2.80839 6.93453 2.81875 6.90163L2.89922 6.64739L2.6847 6.48894C2.65693 6.46839 2.67123 6.4244 2.70576 6.4241L2.97244 6.42207L3.0568 6.16908C3.06768 6.13635 3.11401 6.13635 3.12493 6.16908Z"
        fill="#F5F5F5" />
    <path
        d="M4.15166 1.52357L4.23602 1.77656L4.5027 1.77859C4.53724 1.77889 4.55153 1.82293 4.52377 1.84344L4.30925 2.00188L4.38972 2.25613C4.40017 2.28903 4.36265 2.31631 4.33454 2.29619L4.1176 2.14111L3.90066 2.29619C3.87255 2.31627 3.83512 2.28903 3.84548 2.25613L3.92596 2.00188L3.71143 1.84344C3.68367 1.82289 3.69796 1.77889 3.7325 1.77859L3.99918 1.77656L4.08354 1.52357C4.09437 1.49084 4.14074 1.49084 4.15166 1.52357Z"
        fill="#F5F5F5" />
    <path
        d="M4.15166 2.84733L4.23602 3.10032L4.5027 3.10235C4.53724 3.10266 4.55153 3.14669 4.52377 3.1672L4.30925 3.32564L4.38972 3.57989C4.40017 3.61279 4.36265 3.64007 4.33454 3.61996L4.1176 3.46488L3.90066 3.61996C3.87255 3.64003 3.83512 3.61283 3.84548 3.57989L3.92596 3.32564L3.71143 3.1672C3.68367 3.14674 3.69796 3.10266 3.7325 3.10235L3.99918 3.10032L4.08354 2.84733C4.09437 2.81456 4.14074 2.81456 4.15166 2.84733Z"
        fill="#F5F5F5" />
    <path
        d="M4.15166 4.17082L4.23602 4.42381L4.5027 4.42584C4.53724 4.42614 4.55153 4.47013 4.52377 4.49069L4.30925 4.64913L4.38972 4.90338C4.40017 4.93627 4.36265 4.96356 4.33454 4.94344L4.1176 4.78836L3.90066 4.94344C3.87255 4.96352 3.83512 4.93627 3.84548 4.90338L3.92596 4.64913L3.71143 4.49069C3.68367 4.47013 3.69796 4.42614 3.7325 4.42584L3.99918 4.42381L4.08354 4.17082C4.09437 4.13805 4.14074 4.13805 4.15166 4.17082Z"
        fill="#F5F5F5" />
    <path
        d="M4.15166 5.49403L4.23602 5.74702L4.5027 5.74905C4.53724 5.74935 4.55153 5.79334 4.52377 5.8139L4.30925 5.97234L4.38972 6.22659C4.40017 6.25948 4.36265 6.28677 4.33454 6.26665L4.1176 6.11157L3.90066 6.26665C3.87255 6.28677 3.83512 6.25948 3.84548 6.22659L3.92596 5.97234L3.71143 5.8139C3.68367 5.79334 3.69796 5.74935 3.7325 5.74905L3.99918 5.74702L4.08354 5.49403C4.09437 5.4613 4.14074 5.4613 4.15166 5.49403Z"
        fill="#F5F5F5" />
    <path
        d="M5.17917 0.874913L5.26353 1.12791L5.53021 1.12994C5.56475 1.13024 5.57904 1.17427 5.55128 1.19478L5.33675 1.35318L5.41723 1.60743C5.42768 1.64033 5.39016 1.66761 5.36205 1.64749L5.14507 1.49246L4.92812 1.64754C4.90002 1.66766 4.86259 1.64037 4.87295 1.60747L4.95342 1.35323L4.73889 1.19482C4.71113 1.17427 4.72542 1.13024 4.75996 1.12998L5.02664 1.12795L5.111 0.874956C5.12193 0.842144 5.16825 0.842144 5.17917 0.874913Z"
        fill="#F5F5F5" />
    <path
        d="M5.17917 2.19837L5.26353 2.45137L5.53021 2.4534C5.56475 2.4537 5.57904 2.49769 5.55128 2.51824L5.33675 2.67669L5.41723 2.93093C5.42768 2.96383 5.39016 2.99112 5.36205 2.971L5.14507 2.81592L4.92812 2.971C4.90002 2.99107 4.86259 2.96383 4.87295 2.93093L4.95342 2.67669L4.73889 2.51824C4.71113 2.49769 4.72542 2.4537 4.75996 2.4534L5.02664 2.45137L5.111 2.19837C5.12193 2.16565 5.16825 2.16565 5.17917 2.19837Z"
        fill="#F5F5F5" />
    <path
        d="M5.17917 3.5219L5.26353 3.77489L5.53021 3.77692C5.56475 3.77722 5.57904 3.82122 5.55128 3.84177L5.33675 4.00021L5.41723 4.25446C5.42768 4.28735 5.39016 4.31464 5.36205 4.29452L5.14507 4.1394L4.92812 4.29448C4.90002 4.31455 4.86259 4.28731 4.87295 4.25441L4.95342 4.00017L4.73889 3.84172C4.71113 3.82117 4.72542 3.77718 4.75996 3.77688L5.02664 3.77485L5.111 3.52185C5.12193 3.48913 5.16825 3.48913 5.17917 3.5219Z"
        fill="#F5F5F5" />
    <path
        d="M5.17917 4.84538L5.26353 5.09837L5.53021 5.1004C5.56475 5.1007 5.57904 5.14474 5.55128 5.16525L5.33675 5.32369L5.41723 5.57794C5.42768 5.61083 5.39016 5.63812 5.36205 5.618L5.14507 5.46292L4.92812 5.618C4.90002 5.63808 4.86259 5.61083 4.87295 5.57794L4.95342 5.32369L4.73889 5.16525C4.71113 5.14478 4.72542 5.1007 4.75996 5.1004L5.02664 5.09837L5.111 4.84538C5.12193 4.81261 5.16825 4.81261 5.17917 4.84538Z"
        fill="#F5F5F5" />
    <path
        d="M5.17917 6.16908L5.26353 6.42207L5.53021 6.4241C5.56475 6.4244 5.57904 6.46839 5.55128 6.48894L5.33675 6.64739L5.41723 6.90163C5.42768 6.93453 5.39016 6.96182 5.36205 6.9417L5.14507 6.78662L4.92812 6.9417C4.90002 6.96178 4.86259 6.93453 4.87295 6.90163L4.95342 6.64739L4.73889 6.48894C4.71113 6.46839 4.72542 6.4244 4.75996 6.4241L5.02664 6.42207L5.111 6.16908C5.12193 6.13635 5.16825 6.13635 5.17917 6.16908Z"
        fill="#F5F5F5" />
    <path
        d="M6.20586 1.52357L6.29022 1.77656L6.5569 1.77859C6.59144 1.77889 6.60573 1.82293 6.57797 1.84344L6.36344 2.00188L6.44392 2.25613C6.45437 2.28903 6.41685 2.31631 6.38874 2.29619L6.1718 2.14111L5.95485 2.29619C5.92675 2.31627 5.88932 2.28903 5.89968 2.25613L5.98015 2.00188L5.76563 1.84344C5.73787 1.82289 5.75216 1.77889 5.7867 1.77859L6.05338 1.77656L6.13774 1.52357C6.14866 1.49084 6.19494 1.49084 6.20586 1.52357Z"
        fill="#F5F5F5" />
    <path
        d="M6.20586 2.84733L6.29022 3.10032L6.5569 3.10235C6.59144 3.10266 6.60573 3.14669 6.57797 3.1672L6.36344 3.32564L6.44392 3.57989C6.45437 3.61279 6.41685 3.64007 6.38874 3.61996L6.1718 3.46488L5.95485 3.61996C5.92675 3.64003 5.88932 3.61283 5.89968 3.57989L5.98015 3.32564L5.76563 3.1672C5.73787 3.14674 5.75216 3.10266 5.7867 3.10235L6.05338 3.10032L6.13774 2.84733C6.14866 2.81456 6.19494 2.81456 6.20586 2.84733Z"
        fill="#F5F5F5" />
    <path
        d="M6.20586 4.17082L6.29022 4.42381L6.5569 4.42584C6.59144 4.42614 6.60573 4.47013 6.57797 4.49069L6.36344 4.64913L6.44392 4.90338C6.45437 4.93627 6.41685 4.96356 6.38874 4.94344L6.1718 4.78836L5.95485 4.94344C5.92675 4.96352 5.88932 4.93627 5.89968 4.90338L5.98015 4.64913L5.76563 4.49069C5.73787 4.47013 5.75216 4.42614 5.7867 4.42584L6.05338 4.42381L6.13774 4.17082C6.14866 4.13805 6.19494 4.13805 6.20586 4.17082Z"
        fill="#F5F5F5" />
    <path
        d="M6.20586 5.49403L6.29022 5.74702L6.5569 5.74905C6.59144 5.74935 6.60573 5.79334 6.57797 5.8139L6.36344 5.97234L6.44392 6.22659C6.45437 6.25948 6.41685 6.28677 6.38874 6.26665L6.1718 6.11157L5.95485 6.26665C5.92675 6.28677 5.88932 6.25948 5.89968 6.22659L5.98015 5.97234L5.76563 5.8139C5.73787 5.79334 5.75216 5.74935 5.7867 5.74905L6.05338 5.74702L6.13774 5.49403C6.14866 5.4613 6.19494 5.4613 6.20586 5.49403Z"
        fill="#F5F5F5" />
    <path
        d="M7.23394 0.874918L7.3183 1.12791L7.58498 1.12994C7.61952 1.13024 7.63381 1.17428 7.60605 1.19479L7.39152 1.35319L7.472 1.60743C7.48244 1.64033 7.44493 1.66762 7.41682 1.6475L7.19988 1.49242L6.98293 1.6475C6.95483 1.66762 6.91739 1.64033 6.92776 1.60743L7.00823 1.35319L6.7937 1.19479C6.76594 1.17424 6.78023 1.1302 6.81477 1.12994L7.08145 1.12791L7.16581 0.874918C7.17665 0.84215 7.22302 0.84215 7.23394 0.874918Z"
        fill="#F5F5F5" />
    <path
        d="M7.23394 2.19837L7.3183 2.45137L7.58498 2.4534C7.61952 2.4537 7.63381 2.49769 7.60605 2.51824L7.39152 2.67669L7.472 2.93093C7.48244 2.96383 7.44493 2.99112 7.41682 2.971L7.19988 2.81592L6.98293 2.971C6.95483 2.99107 6.91739 2.96383 6.92776 2.93093L7.00823 2.67669L6.7937 2.51824C6.76594 2.49769 6.78023 2.4537 6.81477 2.4534L7.08145 2.45137L7.16581 2.19837C7.17665 2.16565 7.22302 2.16565 7.23394 2.19837Z"
        fill="#F5F5F5" />
    <path
        d="M7.23394 3.52189L7.3183 3.77489L7.58498 3.77691C7.61952 3.77722 7.63381 3.82121 7.60605 3.84176L7.39152 4.00021L7.472 4.25445C7.48244 4.28735 7.44493 4.31464 7.41682 4.29452L7.19988 4.13944L6.98293 4.29452C6.95483 4.31459 6.91739 4.28739 6.92776 4.25445L7.00823 4.00021L6.7937 3.84176C6.76594 3.82121 6.78023 3.77722 6.81477 3.77691L7.08145 3.77489L7.16581 3.52189C7.17665 3.48912 7.22302 3.48912 7.23394 3.52189Z"
        fill="#F5F5F5" />
    <path
        d="M7.23394 4.84538L7.3183 5.09837L7.58498 5.1004C7.61952 5.1007 7.63381 5.14474 7.60605 5.16525L7.39152 5.32369L7.472 5.57794C7.48244 5.61083 7.44493 5.63812 7.41682 5.618L7.19988 5.46292L6.98293 5.618C6.95483 5.63808 6.91739 5.61083 6.92776 5.57794L7.00823 5.32369L6.7937 5.16525C6.76594 5.14478 6.78023 5.1007 6.81477 5.1004L7.08145 5.09837L7.16581 4.84538C7.17665 4.81261 7.22302 4.81261 7.23394 4.84538Z"
        fill="#F5F5F5" />
    <path
        d="M7.23394 6.16908L7.3183 6.42207L7.58498 6.4241C7.61952 6.4244 7.63381 6.46839 7.60605 6.48894L7.39152 6.64739L7.472 6.90163C7.48244 6.93453 7.44493 6.96182 7.41682 6.9417L7.19988 6.78662L6.98293 6.9417C6.95483 6.96178 6.91739 6.93453 6.92776 6.90163L7.00823 6.64739L6.7937 6.48894C6.76594 6.46839 6.78023 6.4244 6.81477 6.4241L7.08145 6.42207L7.16581 6.16908C7.17665 6.13635 7.22302 6.13635 7.23394 6.16908Z"
        fill="#F5F5F5" />
    <path
        d="M8.26006 1.52357L8.34442 1.77656L8.6111 1.77859C8.64564 1.77889 8.65993 1.82293 8.63217 1.84344L8.41764 2.00188L8.49812 2.25613C8.50857 2.28903 8.47105 2.31631 8.44294 2.29619L8.226 2.14111L8.00905 2.29619C7.98095 2.31627 7.94352 2.28903 7.95388 2.25613L8.03435 2.00188L7.81983 1.84344C7.79207 1.82289 7.80636 1.77889 7.8409 1.77859L8.10758 1.77656L8.19194 1.52357C8.20282 1.49084 8.24914 1.49084 8.26006 1.52357Z"
        fill="#F5F5F5" />
    <path
        d="M8.26006 2.84733L8.34442 3.10032L8.6111 3.10235C8.64564 3.10266 8.65993 3.14669 8.63217 3.1672L8.41764 3.32564L8.49812 3.57989C8.50857 3.61279 8.47105 3.64007 8.44294 3.61996L8.226 3.46488L8.00905 3.61996C7.98095 3.64003 7.94352 3.61283 7.95388 3.57989L8.03435 3.32564L7.81983 3.1672C7.79207 3.14674 7.80636 3.10266 7.8409 3.10235L8.10758 3.10032L8.19194 2.84733C8.20282 2.81456 8.24914 2.81456 8.26006 2.84733Z"
        fill="#F5F5F5" />
    <path
        d="M8.26006 4.17082L8.34442 4.42381L8.6111 4.42584C8.64564 4.42614 8.65993 4.47013 8.63217 4.49069L8.41764 4.64913L8.49812 4.90338C8.50857 4.93627 8.47105 4.96356 8.44294 4.94344L8.226 4.78836L8.00905 4.94344C7.98095 4.96352 7.94352 4.93627 7.95388 4.90338L8.03435 4.64913L7.81983 4.49069C7.79207 4.47013 7.80636 4.42614 7.8409 4.42584L8.10758 4.42381L8.19194 4.17082C8.20282 4.13805 8.24914 4.13805 8.26006 4.17082Z"
        fill="#F5F5F5" />
    <path
        d="M8.26006 5.49403L8.34442 5.74702L8.6111 5.74905C8.64564 5.74935 8.65993 5.79334 8.63217 5.8139L8.41764 5.97234L8.49812 6.22659C8.50857 6.25948 8.47105 6.28677 8.44294 6.26665L8.226 6.11157L8.00905 6.26665C7.98095 6.28677 7.94352 6.25948 7.95388 6.22659L8.03435 5.97234L7.81983 5.8139C7.79207 5.79334 7.80636 5.74935 7.8409 5.74905L8.10758 5.74702L8.19194 5.49403C8.20282 5.4613 8.24914 5.4613 8.26006 5.49403Z"
        fill="#F5F5F5" />
    <path
        d="M9.28881 0.874918L9.37317 1.12791L9.63985 1.12994C9.67439 1.13024 9.68868 1.17428 9.66092 1.19479L9.44639 1.35319L9.52687 1.60743C9.53731 1.64033 9.4998 1.66762 9.47169 1.6475L9.25475 1.49242L9.0378 1.6475C9.0097 1.66762 8.97227 1.64033 8.98263 1.60743L9.0631 1.35319L8.84857 1.19479C8.82081 1.17424 8.8351 1.1302 8.86964 1.12994L9.13632 1.12791L9.22068 0.874918C9.23156 0.84215 9.27784 0.84215 9.28881 0.874918Z"
        fill="#F5F5F5" />
    <path
        d="M9.28881 2.19837L9.37317 2.45137L9.63985 2.4534C9.67439 2.4537 9.68868 2.49769 9.66092 2.51824L9.44639 2.67669L9.52687 2.93093C9.53731 2.96383 9.4998 2.99112 9.47169 2.971L9.25475 2.81592L9.0378 2.971C9.0097 2.99107 8.97227 2.96383 8.98263 2.93093L9.0631 2.67669L8.84857 2.51824C8.82081 2.49769 8.8351 2.4537 8.86964 2.4534L9.13632 2.45137L9.22068 2.19837C9.23156 2.16565 9.27784 2.16565 9.28881 2.19837Z"
        fill="#F5F5F5" />
    <path
        d="M9.28881 3.52189L9.37317 3.77489L9.63985 3.77691C9.67439 3.77722 9.68868 3.82121 9.66092 3.84176L9.44639 4.00021L9.52687 4.25445C9.53731 4.28735 9.4998 4.31464 9.47169 4.29452L9.25475 4.13944L9.0378 4.29452C9.0097 4.31459 8.97227 4.28739 8.98263 4.25445L9.0631 4.00021L8.84857 3.84176C8.82081 3.82121 8.8351 3.77722 8.86964 3.77691L9.13632 3.77489L9.22068 3.52189C9.23156 3.48912 9.27784 3.48912 9.28881 3.52189Z"
        fill="#F5F5F5" />
    <path
        d="M9.28881 4.84538L9.37317 5.09837L9.63985 5.1004C9.67439 5.1007 9.68868 5.14474 9.66092 5.16525L9.44639 5.32369L9.52687 5.57794C9.53731 5.61083 9.4998 5.63812 9.47169 5.618L9.25475 5.46292L9.0378 5.618C9.0097 5.63808 8.97227 5.61083 8.98263 5.57794L9.0631 5.32369L8.84857 5.16525C8.82081 5.14478 8.8351 5.1007 8.86964 5.1004L9.13632 5.09837L9.22068 4.84538C9.23156 4.81261 9.27784 4.81261 9.28881 4.84538Z"
        fill="#F5F5F5" />
    <path
        d="M9.28881 6.16908L9.37317 6.42207L9.63985 6.4241C9.67439 6.4244 9.68868 6.46839 9.66092 6.48894L9.44639 6.64739L9.52687 6.90163C9.53731 6.93453 9.4998 6.96182 9.47169 6.9417L9.25475 6.78662L9.0378 6.9417C9.0097 6.96178 8.97227 6.93453 8.98263 6.90163L9.0631 6.64739L8.84857 6.48894C8.82081 6.46839 8.8351 6.4244 8.86964 6.4241L9.13632 6.42207L9.22068 6.16908C9.23156 6.13635 9.27784 6.13635 9.28881 6.16908Z"
        fill="#F5F5F5" />
</svg>