<svg width="24" height="24" viewBox="0 0 24 24" fill="none" xmlns="http://www.w3.org/2000/svg">
    <circle cx="12" cy="12" r="12" fill="#A0A0A0" />
    <path
        d="M5.38254 18.1946C5.41713 17.9366 5.44373 17.6759 5.48895 17.4205C5.83744 15.545 6.81639 14.0793 8.36995 12.9753C9.44468 13.9941 10.7109 14.5315 12.19 14.5289C13.6638 14.5289 14.9274 13.9968 16.0127 12.97C16.2282 13.1402 16.4543 13.3025 16.6618 13.4861C17.9706 14.6486 18.7421 16.0984 18.9523 17.8408C18.9656 17.9579 18.9842 18.0776 19.0001 18.1946C19.0001 18.3356 19.0001 18.4793 19.0001 18.6202C16.872 22.8765 8.36995 22.8765 5.37988 18.6202C5.38254 18.4793 5.38254 18.3356 5.38254 18.1946Z"
        fill="white" />
    <path
        d="M12.5122 5C12.7809 5.0532 13.0549 5.08779 13.3156 5.16227C14.9117 5.60653 16.0928 7.0191 16.2577 8.67108C16.4865 10.9615 14.8053 12.9726 12.5042 13.1615C10.4319 13.3344 8.52453 11.858 8.17338 9.80699C7.79563 7.61498 9.16564 5.57194 11.339 5.09045C11.5146 5.05054 11.6955 5.02926 11.8737 5C12.0865 5 12.2994 5 12.5122 5Z"
        fill="white" />
</svg>