<svg width="16" height="16" viewBox="0 0 16 16" fill="none" xmlns="http://www.w3.org/2000/svg">
    <path
        d="M14.8571 1.95072L8.40457 8.40283C8.2968 8.50691 8.15246 8.5645 8.00263 8.5632C7.8528 8.5619 7.70948 8.50181 7.60353 8.39587C7.49758 8.28993 7.43749 8.14662 7.43619 7.9968C7.43488 7.84698 7.49248 7.70265 7.59657 7.59489L14.0491 1.14278H9.71429C9.56273 1.14278 9.41739 1.08258 9.31022 0.97542C9.20306 0.868264 9.14286 0.722929 9.14286 0.571388C9.14286 0.419846 9.20306 0.274512 9.31022 0.167356C9.41739 0.0601996 9.56273 0 9.71429 0H15.4286C15.5801 0 15.7255 0.0601996 15.8326 0.167356C15.9398 0.274512 16 0.419846 16 0.571388V6.28526C16 6.43681 15.9398 6.58214 15.8326 6.6893C15.7255 6.79645 15.5801 6.85665 15.4286 6.85665C15.277 6.85665 15.1317 6.79645 15.0245 6.6893C14.9173 6.58214 14.8571 6.43681 14.8571 6.28526V1.95072ZM4.57143 2.28555H1.71314C0.766857 2.28555 0 3.05007 0 3.99514V14.2904C0 15.2332 0.776 16 1.71657 16H11.9966C12.2221 16.0003 12.4454 15.9561 12.6538 15.87C12.8622 15.7838 13.0516 15.6574 13.211 15.4979C13.3705 15.3385 13.4969 15.1491 13.5831 14.9408C13.6692 14.7324 13.7134 14.509 13.7131 14.2835V11.4289C13.7131 11.2774 13.6529 11.132 13.5458 11.0249C13.4386 10.9177 13.2933 10.8575 13.1417 10.8575C12.9902 10.8575 12.8448 10.9177 12.7377 11.0249C12.6305 11.132 12.5703 11.2774 12.5703 11.4289V14.2835C12.5706 14.359 12.556 14.4337 12.5272 14.5034C12.4985 14.5732 12.4563 14.6365 12.4029 14.6899C12.3496 14.7432 12.2862 14.7854 12.2165 14.8142C12.1467 14.8429 12.072 14.8575 11.9966 14.8572H1.71657C1.56577 14.8566 1.42122 14.797 1.31395 14.691C1.20668 14.585 1.14525 14.4412 1.14286 14.2904V3.99514C1.14286 3.68202 1.39771 3.42833 1.71314 3.42833H4.57143C4.72298 3.42833 4.86833 3.36813 4.97549 3.26097C5.08265 3.15381 5.14286 3.00848 5.14286 2.85694C5.14286 2.7054 5.08265 2.56006 4.97549 2.45291C4.86833 2.34575 4.72298 2.28555 4.57143 2.28555Z"
        fill="#777777" />
</svg>