<svg width="38" height="44" viewBox="0 0 38 44" fill="none" xmlns="http://www.w3.org/2000/svg">
    <path
        d="M34.8333 20H3.16667C1.42078 20 0 21.4352 0 23.2V40.8C0 42.5648 1.42078 44 3.16667 44H34.8333C36.5792 44 38 42.5648 38 40.8V23.2C38 21.4352 36.5792 20 34.8333 20ZM31.7559 23.2L19 30.9344L6.24414 23.2H31.7559ZM3.16667 40.8V25.0661L18.1851 34.1723C18.6818 34.4741 19.3119 34.4779 19.8149 34.1723L34.8333 25.0656L34.8349 40.8H3.16667Z"
        fill="#FF7190" />
    <path
        d="M17.4002 15.4543V5.27454L13.7313 8.81876C13.1062 9.42261 12.0939 9.42261 11.4688 8.81876C10.8437 8.21492 10.8437 7.23703 11.4688 6.63319L17.8674 0.451534C18.493 -0.154369 19.5149 -0.146641 20.1326 0.451534L26.5312 6.63267C27.1563 7.23651 27.1563 8.21441 26.5312 8.81825C25.9061 9.42209 24.8938 9.42209 24.2687 8.81825L20.6003 5.27454V15.4543C20.6003 16.3081 19.8846 17 19.0003 17C18.116 17 17.4002 16.3081 17.4002 15.4543Z"
        fill="#FF7190" />
</svg>